<mxfile host="app.diagrams.net" agent="Mozilla/5.0 (Windows NT 10.0; Win64; x64) AppleWebKit/537.36 (KHTML, like Gecko) Chrome/129.0.0.0 Safari/537.36" version="24.8.0">
  <diagram name="Страница — 1" id="q2LsAXYmceThA6jAPv1i">
    <mxGraphModel dx="525" dy="265" grid="1" gridSize="10" guides="1" tooltips="1" connect="1" arrows="1" fold="1" page="1" pageScale="1" pageWidth="2339" pageHeight="3300" math="0" shadow="0">
      <root>
        <mxCell id="0" />
        <mxCell id="1" parent="0" />
        <mxCell id="i04FxwwzE3xniJl9SdVN-2" style="edgeStyle=orthogonalEdgeStyle;rounded=0;orthogonalLoop=1;jettySize=auto;html=1;" parent="1" source="i04FxwwzE3xniJl9SdVN-1" target="i04FxwwzE3xniJl9SdVN-11" edge="1">
          <mxGeometry relative="1" as="geometry">
            <mxPoint x="480" y="120" as="targetPoint" />
          </mxGeometry>
        </mxCell>
        <mxCell id="i04FxwwzE3xniJl9SdVN-1" value="Start" style="ellipse;whiteSpace=wrap;html=1;" parent="1" vertex="1">
          <mxGeometry x="430" y="30" width="100" height="60" as="geometry" />
        </mxCell>
        <mxCell id="i04FxwwzE3xniJl9SdVN-12" style="edgeStyle=orthogonalEdgeStyle;rounded=0;orthogonalLoop=1;jettySize=auto;html=1;" parent="1" source="i04FxwwzE3xniJl9SdVN-11" target="i04FxwwzE3xniJl9SdVN-13" edge="1">
          <mxGeometry relative="1" as="geometry">
            <mxPoint x="480" y="210" as="targetPoint" />
          </mxGeometry>
        </mxCell>
        <mxCell id="i04FxwwzE3xniJl9SdVN-11" value="float n_f, m_f;&amp;nbsp; &amp;nbsp; &amp;nbsp;double n_d, m_d;" style="rounded=0;whiteSpace=wrap;html=1;" parent="1" vertex="1">
          <mxGeometry x="420" y="120" width="120" height="60" as="geometry" />
        </mxCell>
        <mxCell id="i04FxwwzE3xniJl9SdVN-15" value="" style="edgeStyle=orthogonalEdgeStyle;rounded=0;orthogonalLoop=1;jettySize=auto;html=1;" parent="1" source="i04FxwwzE3xniJl9SdVN-13" target="i04FxwwzE3xniJl9SdVN-14" edge="1">
          <mxGeometry relative="1" as="geometry" />
        </mxCell>
        <mxCell id="i04FxwwzE3xniJl9SdVN-13" value="&quot;Введіть значення для n_f і m_f (float): &quot;" style="shape=parallelogram;perimeter=parallelogramPerimeter;whiteSpace=wrap;html=1;fixedSize=1;" parent="1" vertex="1">
          <mxGeometry x="395" y="220" width="170" height="50" as="geometry" />
        </mxCell>
        <mxCell id="i04FxwwzE3xniJl9SdVN-16" style="edgeStyle=orthogonalEdgeStyle;rounded=0;orthogonalLoop=1;jettySize=auto;html=1;" parent="1" source="i04FxwwzE3xniJl9SdVN-14" target="i04FxwwzE3xniJl9SdVN-17" edge="1">
          <mxGeometry relative="1" as="geometry">
            <mxPoint x="480" y="390" as="targetPoint" />
          </mxGeometry>
        </mxCell>
        <mxCell id="i04FxwwzE3xniJl9SdVN-14" value="scanf(&quot;%f %f&quot;, &amp;amp;n_f, &amp;amp;m_f)" style="shape=parallelogram;perimeter=parallelogramPerimeter;whiteSpace=wrap;html=1;fixedSize=1;" parent="1" vertex="1">
          <mxGeometry x="410" y="310" width="140" height="50" as="geometry" />
        </mxCell>
        <mxCell id="i04FxwwzE3xniJl9SdVN-19" value="" style="edgeStyle=orthogonalEdgeStyle;rounded=0;orthogonalLoop=1;jettySize=auto;html=1;" parent="1" source="i04FxwwzE3xniJl9SdVN-17" target="i04FxwwzE3xniJl9SdVN-18" edge="1">
          <mxGeometry relative="1" as="geometry" />
        </mxCell>
        <mxCell id="i04FxwwzE3xniJl9SdVN-17" value="&quot;Введіть значення для n_d і m_d (double): &quot;" style="shape=parallelogram;perimeter=parallelogramPerimeter;whiteSpace=wrap;html=1;fixedSize=1;" parent="1" vertex="1">
          <mxGeometry x="415" y="390" width="130" height="50" as="geometry" />
        </mxCell>
        <mxCell id="i04FxwwzE3xniJl9SdVN-21" value="" style="edgeStyle=orthogonalEdgeStyle;rounded=0;orthogonalLoop=1;jettySize=auto;html=1;" parent="1" source="i04FxwwzE3xniJl9SdVN-18" target="i04FxwwzE3xniJl9SdVN-20" edge="1">
          <mxGeometry relative="1" as="geometry" />
        </mxCell>
        <mxCell id="i04FxwwzE3xniJl9SdVN-18" value="scanf(&quot;%lf %lf&quot;, &amp;amp;n_d, &amp;amp;m_d)" style="shape=parallelogram;perimeter=parallelogramPerimeter;whiteSpace=wrap;html=1;fixedSize=1;" parent="1" vertex="1">
          <mxGeometry x="402.5" y="470" width="155" height="50" as="geometry" />
        </mxCell>
        <mxCell id="i04FxwwzE3xniJl9SdVN-22" style="edgeStyle=orthogonalEdgeStyle;rounded=0;orthogonalLoop=1;jettySize=auto;html=1;" parent="1" source="i04FxwwzE3xniJl9SdVN-20" target="i04FxwwzE3xniJl9SdVN-23" edge="1">
          <mxGeometry relative="1" as="geometry">
            <mxPoint x="480" y="660" as="targetPoint" />
          </mxGeometry>
        </mxCell>
        <mxCell id="i04FxwwzE3xniJl9SdVN-20" value="result1_f = ++n_f * ++m_f" style="whiteSpace=wrap;html=1;" parent="1" vertex="1">
          <mxGeometry x="420" y="560" width="120" height="60" as="geometry" />
        </mxCell>
        <mxCell id="i04FxwwzE3xniJl9SdVN-24" style="edgeStyle=orthogonalEdgeStyle;rounded=0;orthogonalLoop=1;jettySize=auto;html=1;" parent="1" source="i04FxwwzE3xniJl9SdVN-23" target="i04FxwwzE3xniJl9SdVN-25" edge="1">
          <mxGeometry relative="1" as="geometry">
            <mxPoint x="480" y="760" as="targetPoint" />
          </mxGeometry>
        </mxCell>
        <mxCell id="i04FxwwzE3xniJl9SdVN-23" value="result2_f = m_f++ &amp;lt; n_f;" style="rounded=0;whiteSpace=wrap;html=1;" parent="1" vertex="1">
          <mxGeometry x="420" y="660" width="120" height="60" as="geometry" />
        </mxCell>
        <mxCell id="i04FxwwzE3xniJl9SdVN-70" style="edgeStyle=orthogonalEdgeStyle;rounded=0;orthogonalLoop=1;jettySize=auto;html=1;entryX=0.5;entryY=0;entryDx=0;entryDy=0;" parent="1" source="i04FxwwzE3xniJl9SdVN-25" target="i04FxwwzE3xniJl9SdVN-26" edge="1">
          <mxGeometry relative="1" as="geometry">
            <Array as="points">
              <mxPoint x="600" y="790" />
              <mxPoint x="600" y="20" />
              <mxPoint x="690" y="20" />
            </Array>
          </mxGeometry>
        </mxCell>
        <mxCell id="i04FxwwzE3xniJl9SdVN-25" value="result3_f = n_f++ &amp;gt; m_f" style="rounded=0;whiteSpace=wrap;html=1;" parent="1" vertex="1">
          <mxGeometry x="420" y="760" width="120" height="60" as="geometry" />
        </mxCell>
        <mxCell id="i04FxwwzE3xniJl9SdVN-28" style="edgeStyle=orthogonalEdgeStyle;rounded=0;orthogonalLoop=1;jettySize=auto;html=1;" parent="1" source="i04FxwwzE3xniJl9SdVN-26" target="i04FxwwzE3xniJl9SdVN-29" edge="1">
          <mxGeometry relative="1" as="geometry">
            <mxPoint x="690" y="130" as="targetPoint" />
          </mxGeometry>
        </mxCell>
        <mxCell id="i04FxwwzE3xniJl9SdVN-26" value="result1_d = ++n_d * ++m_d" style="rounded=0;whiteSpace=wrap;html=1;" parent="1" vertex="1">
          <mxGeometry x="630" y="30" width="120" height="60" as="geometry" />
        </mxCell>
        <mxCell id="i04FxwwzE3xniJl9SdVN-31" value="" style="edgeStyle=orthogonalEdgeStyle;rounded=0;orthogonalLoop=1;jettySize=auto;html=1;" parent="1" source="i04FxwwzE3xniJl9SdVN-29" target="i04FxwwzE3xniJl9SdVN-30" edge="1">
          <mxGeometry relative="1" as="geometry" />
        </mxCell>
        <mxCell id="i04FxwwzE3xniJl9SdVN-29" value="result2_d = m_d++ &amp;lt; n_d" style="rounded=0;whiteSpace=wrap;html=1;" parent="1" vertex="1">
          <mxGeometry x="630" y="110" width="120" height="60" as="geometry" />
        </mxCell>
        <mxCell id="i04FxwwzE3xniJl9SdVN-71" style="edgeStyle=orthogonalEdgeStyle;rounded=0;orthogonalLoop=1;jettySize=auto;html=1;entryX=0.5;entryY=0;entryDx=0;entryDy=0;exitX=0.5;exitY=1;exitDx=0;exitDy=0;" parent="1" source="i04FxwwzE3xniJl9SdVN-30" target="i04FxwwzE3xniJl9SdVN-32" edge="1">
          <mxGeometry relative="1" as="geometry">
            <Array as="points">
              <mxPoint x="690" y="290" />
              <mxPoint x="820" y="290" />
              <mxPoint x="820" y="20" />
              <mxPoint x="980" y="20" />
            </Array>
            <mxPoint x="690.0000000000002" y="310" as="sourcePoint" />
            <mxPoint x="1109.9999999999998" y="79.99999999999994" as="targetPoint" />
          </mxGeometry>
        </mxCell>
        <mxCell id="i04FxwwzE3xniJl9SdVN-30" value="result3_d = n_d++ &amp;gt; m_d" style="whiteSpace=wrap;html=1;rounded=0;" parent="1" vertex="1">
          <mxGeometry x="630" y="210" width="120" height="60" as="geometry" />
        </mxCell>
        <mxCell id="i04FxwwzE3xniJl9SdVN-35" value="" style="edgeStyle=orthogonalEdgeStyle;rounded=0;orthogonalLoop=1;jettySize=auto;html=1;" parent="1" source="i04FxwwzE3xniJl9SdVN-32" target="i04FxwwzE3xniJl9SdVN-34" edge="1">
          <mxGeometry relative="1" as="geometry" />
        </mxCell>
        <mxCell id="i04FxwwzE3xniJl9SdVN-32" value="&quot;Результати для float:\n&quot;" style="shape=parallelogram;perimeter=parallelogramPerimeter;whiteSpace=wrap;html=1;fixedSize=1;rounded=0;" parent="1" vertex="1">
          <mxGeometry x="920" y="30" width="120" height="60" as="geometry" />
        </mxCell>
        <mxCell id="i04FxwwzE3xniJl9SdVN-36" style="edgeStyle=orthogonalEdgeStyle;rounded=0;orthogonalLoop=1;jettySize=auto;html=1;" parent="1" source="i04FxwwzE3xniJl9SdVN-34" target="i04FxwwzE3xniJl9SdVN-38" edge="1">
          <mxGeometry relative="1" as="geometry">
            <mxPoint x="980" y="220" as="targetPoint" />
          </mxGeometry>
        </mxCell>
        <mxCell id="i04FxwwzE3xniJl9SdVN-34" value="printf(&quot;++n * ++m: result1_f)" style="shape=parallelogram;perimeter=parallelogramPerimeter;whiteSpace=wrap;html=1;fixedSize=1;rounded=0;" parent="1" vertex="1">
          <mxGeometry x="920" y="130" width="120" height="50" as="geometry" />
        </mxCell>
        <mxCell id="i04FxwwzE3xniJl9SdVN-39" style="edgeStyle=orthogonalEdgeStyle;rounded=0;orthogonalLoop=1;jettySize=auto;html=1;" parent="1" source="i04FxwwzE3xniJl9SdVN-38" target="i04FxwwzE3xniJl9SdVN-40" edge="1">
          <mxGeometry relative="1" as="geometry">
            <mxPoint x="980" y="280" as="targetPoint" />
          </mxGeometry>
        </mxCell>
        <mxCell id="i04FxwwzE3xniJl9SdVN-38" value="&quot;m++ &amp;lt; n:&quot;" style="shape=parallelogram;perimeter=parallelogramPerimeter;whiteSpace=wrap;html=1;fixedSize=1;" parent="1" vertex="1">
          <mxGeometry x="920" y="220" width="120" height="40" as="geometry" />
        </mxCell>
        <mxCell id="i04FxwwzE3xniJl9SdVN-41" style="edgeStyle=orthogonalEdgeStyle;rounded=0;orthogonalLoop=1;jettySize=auto;html=1;" parent="1" source="i04FxwwzE3xniJl9SdVN-40" target="i04FxwwzE3xniJl9SdVN-42" edge="1">
          <mxGeometry relative="1" as="geometry">
            <mxPoint x="890" y="390" as="targetPoint" />
          </mxGeometry>
        </mxCell>
        <mxCell id="i04FxwwzE3xniJl9SdVN-43" style="edgeStyle=orthogonalEdgeStyle;rounded=0;orthogonalLoop=1;jettySize=auto;html=1;" parent="1" source="i04FxwwzE3xniJl9SdVN-40" edge="1">
          <mxGeometry relative="1" as="geometry">
            <mxPoint x="1059.9999999999998" y="340" as="targetPoint" />
          </mxGeometry>
        </mxCell>
        <mxCell id="i04FxwwzE3xniJl9SdVN-46" style="edgeStyle=orthogonalEdgeStyle;rounded=0;orthogonalLoop=1;jettySize=auto;html=1;" parent="1" source="i04FxwwzE3xniJl9SdVN-40" edge="1">
          <mxGeometry relative="1" as="geometry">
            <mxPoint x="980" y="420" as="targetPoint" />
          </mxGeometry>
        </mxCell>
        <mxCell id="i04FxwwzE3xniJl9SdVN-40" value="result2_f ==1?" style="rhombus;whiteSpace=wrap;html=1;" parent="1" vertex="1">
          <mxGeometry x="935" y="300" width="90" height="80" as="geometry" />
        </mxCell>
        <mxCell id="i04FxwwzE3xniJl9SdVN-42" value="True" style="shape=parallelogram;perimeter=parallelogramPerimeter;whiteSpace=wrap;html=1;fixedSize=1;" parent="1" vertex="1">
          <mxGeometry x="820" y="315" width="90" height="50" as="geometry" />
        </mxCell>
        <mxCell id="i04FxwwzE3xniJl9SdVN-44" value="False" style="shape=parallelogram;perimeter=parallelogramPerimeter;whiteSpace=wrap;html=1;fixedSize=1;" parent="1" vertex="1">
          <mxGeometry x="1049.5" y="315" width="90.5" height="50" as="geometry" />
        </mxCell>
        <mxCell id="i04FxwwzE3xniJl9SdVN-47" style="edgeStyle=orthogonalEdgeStyle;rounded=0;orthogonalLoop=1;jettySize=auto;html=1;" parent="1" source="i04FxwwzE3xniJl9SdVN-49" target="i04FxwwzE3xniJl9SdVN-50" edge="1">
          <mxGeometry relative="1" as="geometry">
            <mxPoint x="890" y="510" as="targetPoint" />
          </mxGeometry>
        </mxCell>
        <mxCell id="i04FxwwzE3xniJl9SdVN-48" style="edgeStyle=orthogonalEdgeStyle;rounded=0;orthogonalLoop=1;jettySize=auto;html=1;" parent="1" source="i04FxwwzE3xniJl9SdVN-49" edge="1">
          <mxGeometry relative="1" as="geometry">
            <mxPoint x="1059.9999999999998" y="460.0000000000001" as="targetPoint" />
          </mxGeometry>
        </mxCell>
        <mxCell id="i04FxwwzE3xniJl9SdVN-49" value="result3_f ==1?" style="rhombus;whiteSpace=wrap;html=1;" parent="1" vertex="1">
          <mxGeometry x="935" y="420" width="90" height="80" as="geometry" />
        </mxCell>
        <mxCell id="i04FxwwzE3xniJl9SdVN-50" value="True" style="shape=parallelogram;perimeter=parallelogramPerimeter;whiteSpace=wrap;html=1;fixedSize=1;" parent="1" vertex="1">
          <mxGeometry x="810" y="430" width="100" height="60" as="geometry" />
        </mxCell>
        <mxCell id="i04FxwwzE3xniJl9SdVN-51" value="False" style="shape=parallelogram;perimeter=parallelogramPerimeter;whiteSpace=wrap;html=1;fixedSize=1;" parent="1" vertex="1">
          <mxGeometry x="1049.5" y="435" width="80.5" height="50" as="geometry" />
        </mxCell>
        <mxCell id="i04FxwwzE3xniJl9SdVN-52" value="" style="edgeStyle=orthogonalEdgeStyle;rounded=0;orthogonalLoop=1;jettySize=auto;html=1;" parent="1" target="i04FxwwzE3xniJl9SdVN-54" edge="1">
          <mxGeometry relative="1" as="geometry">
            <mxPoint x="980" y="500" as="sourcePoint" />
          </mxGeometry>
        </mxCell>
        <mxCell id="i04FxwwzE3xniJl9SdVN-53" value="" style="edgeStyle=orthogonalEdgeStyle;rounded=0;orthogonalLoop=1;jettySize=auto;html=1;" parent="1" source="i04FxwwzE3xniJl9SdVN-54" target="i04FxwwzE3xniJl9SdVN-56" edge="1">
          <mxGeometry relative="1" as="geometry" />
        </mxCell>
        <mxCell id="i04FxwwzE3xniJl9SdVN-54" value="&quot;Результати для double:\n&quot;" style="shape=parallelogram;perimeter=parallelogramPerimeter;whiteSpace=wrap;html=1;fixedSize=1;rounded=0;" parent="1" vertex="1">
          <mxGeometry x="920" y="540" width="120" height="60" as="geometry" />
        </mxCell>
        <mxCell id="0fRTuDyuU4UoQ8oMjfyI-2" style="edgeStyle=orthogonalEdgeStyle;rounded=0;orthogonalLoop=1;jettySize=auto;html=1;entryX=0.5;entryY=0;entryDx=0;entryDy=0;" edge="1" parent="1" source="i04FxwwzE3xniJl9SdVN-56" target="i04FxwwzE3xniJl9SdVN-58">
          <mxGeometry relative="1" as="geometry" />
        </mxCell>
        <mxCell id="i04FxwwzE3xniJl9SdVN-56" value="printf(&quot;++n * ++m: result1_d)" style="shape=parallelogram;perimeter=parallelogramPerimeter;whiteSpace=wrap;html=1;fixedSize=1;rounded=0;" parent="1" vertex="1">
          <mxGeometry x="920" y="640" width="120" height="50" as="geometry" />
        </mxCell>
        <mxCell id="i04FxwwzE3xniJl9SdVN-57" style="edgeStyle=orthogonalEdgeStyle;rounded=0;orthogonalLoop=1;jettySize=auto;html=1;" parent="1" source="i04FxwwzE3xniJl9SdVN-58" target="i04FxwwzE3xniJl9SdVN-62" edge="1">
          <mxGeometry relative="1" as="geometry">
            <mxPoint x="1320" y="90" as="targetPoint" />
          </mxGeometry>
        </mxCell>
        <mxCell id="i04FxwwzE3xniJl9SdVN-58" value="&quot;m++ &amp;lt; n:&quot;" style="shape=parallelogram;perimeter=parallelogramPerimeter;whiteSpace=wrap;html=1;fixedSize=1;" parent="1" vertex="1">
          <mxGeometry x="1260" y="30" width="120" height="40" as="geometry" />
        </mxCell>
        <mxCell id="i04FxwwzE3xniJl9SdVN-59" style="edgeStyle=orthogonalEdgeStyle;rounded=0;orthogonalLoop=1;jettySize=auto;html=1;" parent="1" source="i04FxwwzE3xniJl9SdVN-62" target="i04FxwwzE3xniJl9SdVN-63" edge="1">
          <mxGeometry relative="1" as="geometry">
            <mxPoint x="1230" y="200" as="targetPoint" />
          </mxGeometry>
        </mxCell>
        <mxCell id="i04FxwwzE3xniJl9SdVN-60" style="edgeStyle=orthogonalEdgeStyle;rounded=0;orthogonalLoop=1;jettySize=auto;html=1;" parent="1" source="i04FxwwzE3xniJl9SdVN-62" edge="1">
          <mxGeometry relative="1" as="geometry">
            <mxPoint x="1399.9999999999998" y="150" as="targetPoint" />
          </mxGeometry>
        </mxCell>
        <mxCell id="i04FxwwzE3xniJl9SdVN-61" style="edgeStyle=orthogonalEdgeStyle;rounded=0;orthogonalLoop=1;jettySize=auto;html=1;" parent="1" source="i04FxwwzE3xniJl9SdVN-62" edge="1">
          <mxGeometry relative="1" as="geometry">
            <mxPoint x="1320" y="230" as="targetPoint" />
          </mxGeometry>
        </mxCell>
        <mxCell id="i04FxwwzE3xniJl9SdVN-62" value="result2_d ==1?" style="rhombus;whiteSpace=wrap;html=1;" parent="1" vertex="1">
          <mxGeometry x="1275" y="110" width="90" height="80" as="geometry" />
        </mxCell>
        <mxCell id="i04FxwwzE3xniJl9SdVN-63" value="True" style="shape=parallelogram;perimeter=parallelogramPerimeter;whiteSpace=wrap;html=1;fixedSize=1;" parent="1" vertex="1">
          <mxGeometry x="1160" y="125" width="90" height="50" as="geometry" />
        </mxCell>
        <mxCell id="i04FxwwzE3xniJl9SdVN-64" value="False" style="shape=parallelogram;perimeter=parallelogramPerimeter;whiteSpace=wrap;html=1;fixedSize=1;" parent="1" vertex="1">
          <mxGeometry x="1389.5" y="125" width="101" height="50" as="geometry" />
        </mxCell>
        <mxCell id="i04FxwwzE3xniJl9SdVN-65" style="edgeStyle=orthogonalEdgeStyle;rounded=0;orthogonalLoop=1;jettySize=auto;html=1;" parent="1" source="i04FxwwzE3xniJl9SdVN-67" target="i04FxwwzE3xniJl9SdVN-68" edge="1">
          <mxGeometry relative="1" as="geometry">
            <mxPoint x="1230" y="320" as="targetPoint" />
          </mxGeometry>
        </mxCell>
        <mxCell id="i04FxwwzE3xniJl9SdVN-66" style="edgeStyle=orthogonalEdgeStyle;rounded=0;orthogonalLoop=1;jettySize=auto;html=1;" parent="1" source="i04FxwwzE3xniJl9SdVN-67" edge="1">
          <mxGeometry relative="1" as="geometry">
            <mxPoint x="1399.9999999999998" y="270" as="targetPoint" />
          </mxGeometry>
        </mxCell>
        <mxCell id="i04FxwwzE3xniJl9SdVN-72" style="edgeStyle=orthogonalEdgeStyle;rounded=0;orthogonalLoop=1;jettySize=auto;html=1;" parent="1" source="i04FxwwzE3xniJl9SdVN-67" edge="1">
          <mxGeometry relative="1" as="geometry">
            <mxPoint x="1320" y="350" as="targetPoint" />
          </mxGeometry>
        </mxCell>
        <mxCell id="i04FxwwzE3xniJl9SdVN-67" value="result3_d ==1?" style="rhombus;whiteSpace=wrap;html=1;" parent="1" vertex="1">
          <mxGeometry x="1275" y="230" width="90" height="80" as="geometry" />
        </mxCell>
        <mxCell id="i04FxwwzE3xniJl9SdVN-68" value="True" style="shape=parallelogram;perimeter=parallelogramPerimeter;whiteSpace=wrap;html=1;fixedSize=1;" parent="1" vertex="1">
          <mxGeometry x="1160" y="250" width="90" height="40" as="geometry" />
        </mxCell>
        <mxCell id="i04FxwwzE3xniJl9SdVN-69" value="False" style="shape=parallelogram;perimeter=parallelogramPerimeter;whiteSpace=wrap;html=1;fixedSize=1;" parent="1" vertex="1">
          <mxGeometry x="1389.5" y="245" width="100.5" height="50" as="geometry" />
        </mxCell>
        <mxCell id="i04FxwwzE3xniJl9SdVN-73" value="End" style="ellipse;whiteSpace=wrap;html=1;" parent="1" vertex="1">
          <mxGeometry x="1270" y="350" width="100" height="50" as="geometry" />
        </mxCell>
      </root>
    </mxGraphModel>
  </diagram>
</mxfile>
